<svg id='Emoji Thinking Face' width='48' height='48' viewBox='2 2 20 20' xmlns='http://www.w3.org/2000/svg' xmlns:xlink='http://www.w3.org/1999/xlink'><rect width='24' height='24' stroke='none' fill='#000000' opacity='0'/>


<g transform="matrix(0.83 0 0 0.83 12 12)" >
<g style="" >
<g transform="matrix(1 0 0 1 -1.8 -2.63)" >
<path style="stroke: rgb(0,0,0); stroke-width: 1.5; stroke-dasharray: none; stroke-linecap: round; stroke-dashoffset: 0; stroke-linejoin: round; stroke-miterlimit: 10; fill: none; fill-rule: nonzero; opacity: 1;" transform=" translate(-10.2, -9.37)" d="M 12.2 9.89433 C 11.2 8.89433 9.19995 8.39433 8.19995 9.39433" stroke-linecap="round" />
</g>
<g transform="matrix(1 0 0 1 0 -2.11)" >
<path style="stroke: rgb(0,0,0); stroke-width: 1.5; stroke-dasharray: none; stroke-linecap: round; stroke-dashoffset: 0; stroke-linejoin: round; stroke-miterlimit: 10; fill: none; fill-rule: nonzero; opacity: 1;" transform=" translate(-12, -9.89)" d="M 2.29996 11.8943 C 2.19996 11.4943 2.19995 11.0943 2.19995 10.5943 C 2.19995 5.19434 6.59995 0.794342 12 0.794342 C 17.4 0.794342 21.8 5.19434 21.8 10.5943 C 21.8 14.1943 19.9 17.2943 17 18.9943" stroke-linecap="round" />
</g>
<g transform="matrix(1 0 0 1 -2.39 6.46)" >
<path style="stroke: rgb(0,0,0); stroke-width: 1.5; stroke-dasharray: none; stroke-linecap: round; stroke-dashoffset: 0; stroke-linejoin: round; stroke-miterlimit: 10; fill: none; fill-rule: nonzero; opacity: 1;" transform=" translate(-9.61, -18.46)" d="M 10.1499 22.6 C 12.1499 21.8 11.7749 20.0375 11.3749 18.4375 L 14.5592 17.204 C 15.2972 16.9181 15.6829 16.1052 15.4376 15.3528 L 15.4376 15.3528 C 15.1727 14.5401 14.2798 14.1164 13.4827 14.4252 L 7.62497 16.6943 C 7.12497 16.8943 6.52497 16.4943 6.52497 15.9943 L 6.48616 15.0484 C 6.45307 14.2417 5.74363 13.6318 4.94113 13.7202 L 4.94113 13.7202 C 4.23471 13.798 3.69995 14.3948 3.69995 15.1055 L 3.69995 19.1943 C 3.69995 21.7943 6.09995 23.6943 8.59995 23.0943 C 8.59995 23.0943 9.64995 22.8 10.1499 22.6 Z" stroke-linecap="round" />
</g>
<g transform="matrix(1 0 0 1 -4.91 -6.48)" >
<path style="stroke: rgb(0,0,0); stroke-width: 1.5; stroke-dasharray: none; stroke-linecap: round; stroke-dashoffset: 0; stroke-linejoin: round; stroke-miterlimit: 4; fill: none; fill-rule: nonzero; opacity: 1;" transform=" translate(-7.09, -5.52)" d="M 7.27502 5.89433 C 7.06792 5.89433 6.90002 5.72644 6.90002 5.51933 C 6.90002 5.31223 7.06792 5.14433 7.27502 5.14433" stroke-linecap="round" />
</g>
<g transform="matrix(1 0 0 1 -4.54 -6.48)" >
<path style="stroke: rgb(0,0,0); stroke-width: 1.5; stroke-dasharray: none; stroke-linecap: round; stroke-dashoffset: 0; stroke-linejoin: round; stroke-miterlimit: 4; fill: none; fill-rule: nonzero; opacity: 1;" transform=" translate(-7.46, -5.52)" d="M 7.27502 5.89433 C 7.48213 5.89433 7.65002 5.72644 7.65002 5.51933 C 7.65002 5.31223 7.48213 5.14433 7.27502 5.14433" stroke-linecap="round" />
</g>
<g transform="matrix(1 0 0 1 0.41 -6.48)" >
<path style="stroke: rgb(0,0,0); stroke-width: 1.5; stroke-dasharray: none; stroke-linecap: round; stroke-dashoffset: 0; stroke-linejoin: round; stroke-miterlimit: 4; fill: none; fill-rule: nonzero; opacity: 1;" transform=" translate(-12.41, -5.52)" d="M 12.6 5.89433 C 12.3929 5.89433 12.225 5.72644 12.225 5.51933 C 12.225 5.31223 12.3929 5.14433 12.6 5.14433" stroke-linecap="round" />
</g>
<g transform="matrix(1 0 0 1 0.79 -6.48)" >
<path style="stroke: rgb(0,0,0); stroke-width: 1.5; stroke-dasharray: none; stroke-linecap: round; stroke-dashoffset: 0; stroke-linejoin: round; stroke-miterlimit: 4; fill: none; fill-rule: nonzero; opacity: 1;" transform=" translate(-12.79, -5.52)" d="M 12.6 5.89433 C 12.8071 5.89433 12.975 5.72644 12.975 5.51933 C 12.975 5.31223 12.8071 5.14433 12.6 5.14433" stroke-linecap="round" />
</g>
</g>
</g>
</svg>